<svg
   width="1920"
   height="1080"
   viewBox="0 0 100 100"
>
<g id="layer-one">
   <g
       id="component-home-icon"
       transform="matrix(0.35180651,0,0,0.35180651,-9.3226795,-13.401312)">
      <g
         id="g3343"
         transform="translate(-0.6494285)">
        <g
           id="g3337">
          <path
             style="fill:none;stroke:#000000;stroke-width:6.365;stroke-linecap:butt;stroke-linejoin:miter;stroke-miterlimit:4;stroke-dasharray:none;stroke-opacity:1"
             d="M 28.72619,111.125 103.94345,62.744048"
             id="path3278" />
          <path
             style="fill:none;stroke:#000000;stroke-width:6.365;stroke-linecap:butt;stroke-linejoin:miter;stroke-miterlimit:4;stroke-dasharray:none;stroke-opacity:1"
             d="M 175.98569,111.125 100.76843,62.744048"
             id="path3280" />
        </g>
        <path
           id="rect3282"
           style="fill:#000000;fill-opacity:1;stroke:#000000;stroke-width:5.40136;stroke-miterlimit:4;stroke-dasharray:none"
           d="m 144.7369,49.789281 c -3.14098,0 -5.66994,0.505589 -5.66994,1.133782 V 81.015797 L 156.28348,92.08954 V 50.923063 c 0,-0.628193 -2.52844,-1.133782 -5.66942,-1.133782 z" />
      </g>
      <g
         id="g3347">
        <path
           id="rect3303"
           style="fill:#000000;fill-opacity:1;stroke:#000000;stroke-width:3.35785;stroke-miterlimit:4;stroke-dasharray:none"
           d="m 41.759264,117.04765 c -0.16575,0.6266 -0.254821,1.28504 -0.254821,1.9652 v 51.2043 c 0,4.2188 3.396343,7.61514 7.615121,7.61514 h 40.438972 v -29.80158 c 0,-2.61166 2.102712,-4.71441 4.71434,-4.71441 h 14.867384 c 2.61159,0 4.71431,2.10275 4.71431,4.71441 v 29.80158 h 40.43885 c 4.21893,0 7.61516,-3.39634 7.61516,-7.61514 v -51.2043 c 0,-0.67705 -0.0891,-1.33271 -0.25272,-1.95682 H 42.097391 c -0.11334,0 -0.225984,-0.003 -0.338127,-0.007 z" />
        <path
           style="fill:#000000;fill-opacity:1;stroke:#000000;stroke-width:15.0086;stroke-miterlimit:4;stroke-dasharray:none"
           d="m 47.572097,117.69428 c 3.855501,-2.66937 52.27447,-31.95401 52.816433,-31.944289 0.59892,0.01048 54.84393,31.221339 56.02234,32.233199 0.26141,0.22455 -21.79126,0.37094 -54.66156,0.36306 -49.637003,-0.0131 -55.008306,-0.0766 -54.177213,-0.65197 z"
           id="path3333" />
      </g>
    </g>
    <g
       id="component-image-icon"
       transform="matrix(0.54385809,0,0,0.54385809,-27.913717,-44.358945)">
      <rect
         style="fill:#ffffff;fill-opacity:1;stroke:#000000;stroke-width:4.1;stroke-miterlimit:4;stroke-dasharray:none"
         id="rect1541"
         width="89.58036"
         height="85.04464"
         x="55.184521"
         y="87.690468"
         rx="6.2549143"
         ry="6.9499044" />
      <ellipse
         style="fill:#ffffff;fill-opacity:1;stroke:#000000;stroke-width:3.12487;stroke-miterlimit:4;stroke-dasharray:none"
         id="path1547"
         cx="75.406258"
         cy="104.13245"
         rx="6.9346433"
         ry="6.5566669" />
      <path
         style="fill:none;stroke:#000000;stroke-width:2.565;stroke-linecap:butt;stroke-linejoin:miter;stroke-miterlimit:4;stroke-dasharray:none;stroke-opacity:1"
         d="m 54.882141,154.21428 31.372024,-26.08035 21.166665,20.41071"
         id="path1549" />
      <path
         style="fill:none;stroke:#000000;stroke-width:2.565;stroke-linecap:butt;stroke-linejoin:miter;stroke-miterlimit:4;stroke-dasharray:none;stroke-opacity:1"
         d="M 145.8937,142.11904 114.52163,116.03869 93.354896,136.4494"
         id="path1551" />
    </g>
    <path
       id="component-settings-icon"
       style="display:inline;fill:#ffffff;stroke:#000000;stroke-width:1.68936;stroke-miterlimit:4;stroke-dasharray:none"
       d="m 26.486563,1.3190761 a 25.139255,25.139255 0 0 0 -8.303694,1.4108414 7.5826556,7.5826556 0 0 1 0.03005,0.6717279 7.5826556,7.5826556 0 0 1 -7.582641,7.5826406 7.5826556,7.5826556 0 0 1 -3.329803,-0.770183 25.139255,25.139255 0 0 0 -5.1616653,9.985347 7.5826552,7.5826552 0 0 1 4.017354,6.692083 7.5826552,7.5826552 0 0 1 -3.8113118,6.578191 25.139255,25.139255 0 0 0 4.8529027,9.110822 7.5826552,7.5826552 0 0 1 3.4325234,-0.82133 7.5826552,7.5826552 0 0 1 7.582641,7.582632 7.5826552,7.5826552 0 0 1 -0.04669,0.838997 25.139255,25.139255 0 0 0 8.320334,1.416746 25.139255,25.139255 0 0 0 7.785847,-1.236076 7.5826556,7.5826556 0 0 1 -0.04365,-0.811791 7.5826556,7.5826556 0 0 1 7.582638,-7.58264 7.5826556,7.5826556 0 0 1 3.676528,0.951051 25.139255,25.139255 0 0 0 5.042501,-9.120162 7.5826556,7.5826556 0 0 1 -4.452788,-6.90644 7.5826556,7.5826556 0 0 1 4.674469,-7.002885 A 25.139255,25.139255 0 0 0 45.385619,9.8809766 7.5826556,7.5826556 0 0 1 41.811407,10.776417 7.5826556,7.5826556 0 0 1 34.228769,3.1937728 7.5826556,7.5826556 0 0 1 34.256149,2.5498608 25.139255,25.139255 0 0 0 26.486545,1.3190761 Z M 26.467473,17.72448 a 8.7339081,8.7339081 0 0 1 0.01909,0 8.7339081,8.7339081 0 0 1 8.733855,8.73384 8.7339081,8.7339081 0 0 1 -8.733855,8.734057 8.7339081,8.7339081 0 0 1 -8.734052,-8.734057 8.7339081,8.7339081 0 0 1 8.714969,-8.73384 z" />
      <g
     id="component-dice-six">
    <rect
       style="fill:#ffffff;stroke:#000000;stroke-width:0.545379"
       id="rect1430"
       width="50.434021"
       height="50.434021"
       x="1.3118423"
       y="1.4138967"
       rx="7.9375"
       ry="7.9375" />
    <circle
       style="fill:#000000;stroke:#000000;stroke-width:0.337122"
       id="path1432"
       cx="9.9968348"
       cy="42.959305"
       r="4.316462" />
    <circle
       style="fill:#000000;stroke:#000000;stroke-width:0.337122"
       id="circle1434"
       cx="42.471973"
       cy="9.7223959"
       r="4.316462" />
    <circle
       style="fill:#000000;stroke:#000000;stroke-width:0.337122"
       id="circle2007"
       cx="10.4378"
       cy="9.7223959"
       r="4.316462" />
    <circle
       style="fill:#000000;stroke:#000000;stroke-width:0.337122"
       id="circle2009"
       cx="42.744469"
       cy="43.244984"
       r="4.316462" />
    <circle
       style="fill:#000000;stroke:#000000;stroke-width:0.337122"
       id="circle2011"
       cx="10.072995"
       cy="26.340843"
       r="4.316462" />
    <circle
       style="fill:#000000;stroke:#000000;stroke-width:0.337122"
       id="circle2013"
       cx="42.972923"
       cy="26.483675"
       r="4.316462" />
  </g>
</g>
</svg>